<?xml version="1.0" encoding="UTF-8" standalone="no"?>
<svg
   width="79.6884"
   height="79.6884"
   viewBox="0 0 79.6884 79.6884"
   class="css-1j8o68f"
   version="1.1"
   id="svg3"
   sodipodi:docname="svgviewer-output.svg"
   inkscape:version="1.3 (0e150ed6c4, 2023-07-21)"
   xmlns:inkscape="http://www.inkscape.org/namespaces/inkscape"
   xmlns:sodipodi="http://sodipodi.sourceforge.net/DTD/sodipodi-0.dtd"
   xmlns="http://www.w3.org/2000/svg"
   xmlns:svg="http://www.w3.org/2000/svg">
  <defs
     id="defs3" />
  <sodipodi:namedview
     id="namedview3"
     pagecolor="#505050"
     bordercolor="#ffffff"
     borderopacity="1"
     inkscape:showpageshadow="0"
     inkscape:pageopacity="0"
     inkscape:pagecheckerboard="1"
     inkscape:deskcolor="#505050"
     inkscape:zoom="10.2625"
     inkscape:cx="40.097442"
     inkscape:cy="39.902558"
     inkscape:window-width="1920"
     inkscape:window-height="1017"
     inkscape:window-x="-8"
     inkscape:window-y="-8"
     inkscape:window-maximized="1"
     inkscape:current-layer="svg3" />
  <path
     d="M 39.970206,1.9972689e-4 C 18.000206,-0.06880027 0.07020553,17.7492 2.0552503e-4,39.7192 -0.06979447,61.6892 17.750206,79.6192 39.720206,79.6882 c 21.97,0.069 39.9,-17.75 39.968,-39.719 0.068,-21.969 -17.748,-39.90000027 -39.718,-39.96900027311 z M 39.726206,77.7002 C 18.852206,77.6352 1.9222055,60.6012 1.9882055,39.7252 2.0542055,18.8492 19.089206,1.9221997 39.964206,1.9871997 c 20.875,0.065 37.802,17.1010003 37.737,37.9760003 -0.065,20.875 -17.101,37.802 -37.975,37.738 z"
     fill="#f25d9c"
     id="path1" />
  <g
     fill="#f25d9c"
     id="g3"
     transform="translate(0.12620553,-0.12480027)">
    <path
       d="m 56.181,59.297 c -0.839,-0.138 -1.32,-0.548 -1.553,-1.326 v -3.09 A 0.703,0.703 0 0 0 53.925,54.178 H 25.031 a 0.703,0.703 0 0 0 -0.703,0.703 v 2.526 a 0.791,0.791 0 0 0 -0.044,0.142 c -0.2,1.04 -0.72,1.58 -1.697,1.75 -1.05,0.21 -1.666,0.893 -1.692,1.88 a 6.383,6.383 0 0 0 0.278,2.098 0.702,0.702 0 0 0 0.672,0.491 h 35.158 a 0.7,0.7 0 0 0 0.68,-0.533 6.983,6.983 0 0 0 0.185,-2.075 c -0.052,-0.973 -0.657,-1.65 -1.687,-1.863 z m 0.24,3.064 H 22.39 A 4.947,4.947 0 0 1 22.3,61.217 c 0.006,-0.235 0.052,-0.438 0.544,-0.534 1.444,-0.255 2.392,-1.148 2.759,-2.593 a 0.695,0.695 0 0 0 0.13,-0.408 v -2.099 h 27.488 v 2.485 c 0,0.06 0.009,0.121 0.024,0.181 0.364,1.364 1.301,2.206 2.68,2.428 0.432,0.091 0.522,0.267 0.539,0.558 a 5.888,5.888 0 0 1 -0.045,1.126 z m 2.547,-41.747 a 0.689,0.689 0 0 0 -0.298,0 h -2.835 c 0.191,-0.082 0.418,-0.132 0.687,-0.156 1,-0.263 1.566,-0.945 1.596,-1.922 A 7.106,7.106 0 0 0 57.901,16.522 0.702,0.702 0 0 0 57.222,16 H 22.12 a 0.703,0.703 0 0 0 -0.667,0.478 c -0.211,0.626 -0.297,1.325 -0.255,2.074 0.052,0.97 0.63,1.645 1.747,1.928 0.211,0.017 0.398,0.06 0.564,0.133 h -3.256 c -3.8,0 -6.252,2.605 -6.252,6.637 0,3.903 2.644,6.525 6.58,6.525 1.628,0 3.065,-0.529 4.242,-1.544 v 1.5 c 0,0.39 0.314,0.704 0.703,0.704 h 1.264 a 0.703,0.703 0 0 0 0.703,-0.703 v -1.594 c 0,-1.229 0.667,-1.905 1.877,-1.905 1.008,0 2.21,0.33 2.21,1.905 v 1.594 c 0,0.388 0.313,0.703 0.703,0.703 h 1.263 a 0.703,0.703 0 0 0 0.703,-0.703 v -1.594 c 0,-1.26 0.783,-2.043 2.042,-2.043 1.241,0 2.043,0.802 2.043,2.043 v 1.594 c 0,0.388 0.315,0.703 0.704,0.703 h 1.21 a 0.703,0.703 0 0 0 0.702,-0.703 v -1.594 c 0,-1.298 0.745,-2.043 2.044,-2.043 1.202,0 2.043,0.84 2.043,2.043 v 1.594 c 0,0.388 0.313,0.703 0.703,0.703 h 1.263 a 0.702,0.702 0 0 0 0.703,-0.703 v -1.594 c 0,-1.26 0.783,-2.043 2.044,-2.043 1.226,0 1.989,0.782 1.989,2.043 v 1.594 c 0,0.388 0.314,0.703 0.702,0.703 h 1.483 a 0.702,0.702 0 0 0 0.702,-0.703 v -1.48 c 1.16,1.003 2.598,1.523 4.243,1.523 3.997,0 6.58,-2.561 6.58,-6.525 0.004,-3.937 -2.598,-6.592 -6.48,-6.636 z M 58.87,32.37 c -1.854,0 -3.32,-0.8 -4.359,-2.374 a 0.703,0.703 0 0 0 -0.788,-0.29 0.707,0.707 0 0 0 -0.501,0.675 v 2.648 h -0.076 v -0.89 c 0,-2.03 -1.395,-3.45 -3.394,-3.45 -1.77,0 -3.074,1.076 -3.382,2.695 -0.316,-1.6 -1.64,-2.695 -3.375,-2.695 -1.747,0 -3.008,0.992 -3.354,2.546 -0.357,-1.536 -1.635,-2.546 -3.35,-2.546 -1.764,0 -3.066,1.07 -3.376,2.682 -0.31,-1.588 -1.61,-2.543 -3.545,-2.543 -1.607,0 -2.756,0.843 -3.14,2.222 v -0.67 a 0.703,0.703 0 0 0 -1.286,-0.395 c -1.077,1.583 -2.544,2.384 -4.363,2.384 -3.144,0 -5.174,-2.01 -5.174,-5.118 0,-3.228 1.857,-5.231 4.846,-5.231 h 4.723 a 0.703,0.703 0 0 0 0.656,-0.955 c -0.463,-1.205 -1.353,-1.892 -2.454,-1.966 -0.458,-0.12 -0.56,-0.327 -0.577,-0.621 a 4.613,4.613 0 0 1 0.062,-1.071 h 33.988 c 0.05,0.34 0.072,0.705 0.061,1.087 -0.008,0.294 -0.101,0.486 -0.421,0.582 -1.274,0.096 -2.169,0.792 -2.589,2.011 a 0.704,0.704 0 0 0 0.665,0.933 h 4.505 c 3.191,0 5.174,2.004 5.174,5.23 0,3.158 -1.984,5.12 -5.176,5.12 z"
       id="path2" />
    <path
       d="m 26.46,26.92 h 26.53 c 0.037,-0.696 0.165,-2.066 0.386,-2.688 H 26.075 c 0.22,0.622 0.346,1.992 0.385,2.687 z m -5.175,-2.554 a 1.977,1.977 0 1 0 -0.003,3.953 1.977,1.977 0 0 0 0.003,-3.953 z m 36.747,0 a 1.9775003,1.9775003 0 1 0 0.002,3.955 1.9775003,1.9775003 0 0 0 -0.002,-3.955 z m -28.587,7.098 c -0.79,0 -1.141,0.566 -1.141,1.357 v 15.563 h 2.418 V 32.82 c 0,-0.835 -0.447,-1.357 -1.277,-1.357 z m 6.74,0 c -0.79,0 -1.142,0.566 -1.142,1.357 V 48.384 H 37.46 V 32.82 c 0,-0.835 -0.446,-1.357 -1.276,-1.357 z m 6.738,0 c -0.79,0 -1.142,0.566 -1.142,1.357 v 15.563 h 2.418 V 32.82 c 0,-0.835 -0.446,-1.357 -1.276,-1.357 z m 6.738,0 c -0.79,0 -1.141,0.566 -1.141,1.357 v 15.563 h 2.418 V 32.82 c 0,-0.835 -0.448,-1.357 -1.277,-1.357 z m -24.52,20.09 c 0,0.742 0.948,1.35 2.104,1.35 h 24.191 c 1.158,0 2.106,-0.608 2.106,-1.35 V 50.205 H 25.14 v 1.348 z"
       id="path3" />
  </g>
</svg>
